# xmcd
#
# Track frame offsets: 
#        182
#        13855
#        26777
#        45807
#        66990
#        78752
#        93605
#        112972
#        127825
#        140662
#
# Disc length: 2088 seconds
#
# Revision: 1
# Processed by: cddbd v1.5.1PL0 Copyright (c) Steve Scherf et al.
# Submitted via: ExactAudioCopy v0.95b2
#
DISCID=7b08260a
DTITLE=Santana - Santana's Greatest Hits
DYEAR=1973
DGENRE=Rock
TTITLE0=Evil Ways
TTITLE1=Jingo
TTITLE2=Hope You're Feeling Better
TTITLE3=Samba Pa Ti
TTITLE4=Persuasion
TTITLE5=Black Magic Woman
TTITLE6=Oye Como Va
TTITLE7=Everything's Coming Our Way
TTITLE8=Se A Cabo
TTITLE9=Everybody's Everyhing
EXTD=
EXTT0=
EXTT1=
EXTT2=
EXTT3=
EXTT4=
EXTT5=
EXTT6=
EXTT7=
EXTT8=
EXTT9=
PLAYORDER=
